%FSLAX25Y25*%
%MOIN*%
G70*
G01*
G75*
G04 Layer_Color=8421504*
%ADD10R,0.09449X0.06496*%
%ADD11R,0.09449X0.14370*%
%ADD12R,0.05118X0.21654*%
%ADD13R,0.15748X0.15354*%
%ADD14C,0.15748*%
D10*
X177165Y224606D02*
D03*
X177165Y162739D02*
D03*
Y100872D02*
D03*
Y39004D02*
D03*
Y-22863D02*
D03*
Y-84730D02*
D03*
Y-146597D02*
D03*
Y-208465D02*
D03*
X134514Y224606D02*
D03*
Y162739D02*
D03*
Y100872D02*
D03*
Y39004D02*
D03*
Y-22863D02*
D03*
Y-84730D02*
D03*
Y-146597D02*
D03*
Y-208465D02*
D03*
X91864Y224606D02*
D03*
Y162739D02*
D03*
Y100872D02*
D03*
Y39004D02*
D03*
Y-22863D02*
D03*
Y-84730D02*
D03*
Y-146597D02*
D03*
Y-208465D02*
D03*
X49213Y224606D02*
D03*
Y162739D02*
D03*
Y100872D02*
D03*
Y39004D02*
D03*
Y-22863D02*
D03*
Y-84730D02*
D03*
Y-146597D02*
D03*
Y-208465D02*
D03*
X-49213Y224606D02*
D03*
Y162739D02*
D03*
Y100872D02*
D03*
Y39004D02*
D03*
Y-22863D02*
D03*
Y-84730D02*
D03*
Y-146597D02*
D03*
Y-208465D02*
D03*
X-91864Y224606D02*
D03*
Y162739D02*
D03*
Y100872D02*
D03*
Y39004D02*
D03*
Y-22863D02*
D03*
Y-84730D02*
D03*
Y-146597D02*
D03*
Y-208465D02*
D03*
X-134514Y224606D02*
D03*
Y162739D02*
D03*
Y100872D02*
D03*
Y39004D02*
D03*
Y-22863D02*
D03*
Y-84730D02*
D03*
Y-146597D02*
D03*
Y-208465D02*
D03*
X-177165Y224606D02*
D03*
Y162739D02*
D03*
Y100872D02*
D03*
Y39004D02*
D03*
Y-22863D02*
D03*
Y-84730D02*
D03*
Y-146597D02*
D03*
Y-208465D02*
D03*
D11*
X177165Y212205D02*
D03*
X177165Y150337D02*
D03*
Y88470D02*
D03*
Y26603D02*
D03*
Y-35264D02*
D03*
Y-97132D02*
D03*
Y-158999D02*
D03*
Y-220866D02*
D03*
X134514Y212205D02*
D03*
Y150337D02*
D03*
Y88470D02*
D03*
Y26603D02*
D03*
Y-35264D02*
D03*
Y-97132D02*
D03*
Y-158999D02*
D03*
Y-220866D02*
D03*
X91864Y212205D02*
D03*
Y150337D02*
D03*
Y88470D02*
D03*
Y26603D02*
D03*
Y-35264D02*
D03*
Y-97132D02*
D03*
Y-158999D02*
D03*
Y-220866D02*
D03*
X49213Y212205D02*
D03*
Y150337D02*
D03*
Y88470D02*
D03*
Y26603D02*
D03*
Y-35264D02*
D03*
Y-97132D02*
D03*
Y-158999D02*
D03*
Y-220866D02*
D03*
X-49213Y212205D02*
D03*
Y150337D02*
D03*
Y88470D02*
D03*
Y26603D02*
D03*
Y-35264D02*
D03*
Y-97132D02*
D03*
Y-158999D02*
D03*
Y-220866D02*
D03*
X-91864Y212205D02*
D03*
Y150337D02*
D03*
Y88470D02*
D03*
Y26603D02*
D03*
Y-35264D02*
D03*
Y-97132D02*
D03*
Y-158999D02*
D03*
Y-220866D02*
D03*
X-134514Y212205D02*
D03*
Y150337D02*
D03*
Y88470D02*
D03*
Y26603D02*
D03*
Y-35264D02*
D03*
Y-97132D02*
D03*
Y-158999D02*
D03*
Y-220866D02*
D03*
X-177165Y212205D02*
D03*
Y150337D02*
D03*
Y88470D02*
D03*
Y26603D02*
D03*
Y-35264D02*
D03*
Y-97132D02*
D03*
Y-158999D02*
D03*
Y-220866D02*
D03*
D12*
X4921Y199016D02*
D03*
X-4921D02*
D03*
D13*
X-13976Y227756D02*
D03*
X13976D02*
D03*
M02*
