%FSLAX25Y25*%
%MOIN*%
G70*
G01*
G75*
G04 Layer_Color=8388736*
%ADD10R,0.09449X0.06496*%
%ADD11R,0.09449X0.14370*%
%ADD12R,0.05118X0.21654*%
%ADD13R,0.15748X0.15354*%
%ADD14C,0.15748*%
%ADD15R,0.10249X0.07296*%
%ADD16R,0.10249X0.15170*%
%ADD17R,0.05918X0.22453*%
%ADD18R,0.16548X0.16154*%
%ADD19C,0.16548*%
D15*
X177165Y224606D02*
D03*
X177165Y162739D02*
D03*
Y100872D02*
D03*
Y39004D02*
D03*
Y-22863D02*
D03*
Y-84730D02*
D03*
Y-146597D02*
D03*
Y-208465D02*
D03*
X134514Y224606D02*
D03*
Y162739D02*
D03*
Y100872D02*
D03*
Y39004D02*
D03*
Y-22863D02*
D03*
Y-84730D02*
D03*
Y-146597D02*
D03*
Y-208465D02*
D03*
X91864Y224606D02*
D03*
Y162739D02*
D03*
Y100872D02*
D03*
Y39004D02*
D03*
Y-22863D02*
D03*
Y-84730D02*
D03*
Y-146597D02*
D03*
Y-208465D02*
D03*
X49213Y224606D02*
D03*
Y162739D02*
D03*
Y100872D02*
D03*
Y39004D02*
D03*
Y-22863D02*
D03*
Y-84730D02*
D03*
Y-146597D02*
D03*
Y-208465D02*
D03*
X-49213Y224606D02*
D03*
Y162739D02*
D03*
Y100872D02*
D03*
Y39004D02*
D03*
Y-22863D02*
D03*
Y-84730D02*
D03*
Y-146597D02*
D03*
Y-208465D02*
D03*
X-91864Y224606D02*
D03*
Y162739D02*
D03*
Y100872D02*
D03*
Y39004D02*
D03*
Y-22863D02*
D03*
Y-84730D02*
D03*
Y-146597D02*
D03*
Y-208465D02*
D03*
X-134514Y224606D02*
D03*
Y162739D02*
D03*
Y100872D02*
D03*
Y39004D02*
D03*
Y-22863D02*
D03*
Y-84730D02*
D03*
Y-146597D02*
D03*
Y-208465D02*
D03*
X-177165Y224606D02*
D03*
Y162739D02*
D03*
Y100872D02*
D03*
Y39004D02*
D03*
Y-22863D02*
D03*
Y-84730D02*
D03*
Y-146597D02*
D03*
Y-208465D02*
D03*
D16*
X177165Y212205D02*
D03*
X177165Y150337D02*
D03*
Y88470D02*
D03*
Y26603D02*
D03*
Y-35264D02*
D03*
Y-97132D02*
D03*
Y-158999D02*
D03*
Y-220866D02*
D03*
X134514Y212205D02*
D03*
Y150337D02*
D03*
Y88470D02*
D03*
Y26603D02*
D03*
Y-35264D02*
D03*
Y-97132D02*
D03*
Y-158999D02*
D03*
Y-220866D02*
D03*
X91864Y212205D02*
D03*
Y150337D02*
D03*
Y88470D02*
D03*
Y26603D02*
D03*
Y-35264D02*
D03*
Y-97132D02*
D03*
Y-158999D02*
D03*
Y-220866D02*
D03*
X49213Y212205D02*
D03*
Y150337D02*
D03*
Y88470D02*
D03*
Y26603D02*
D03*
Y-35264D02*
D03*
Y-97132D02*
D03*
Y-158999D02*
D03*
Y-220866D02*
D03*
X-49213Y212205D02*
D03*
Y150337D02*
D03*
Y88470D02*
D03*
Y26603D02*
D03*
Y-35264D02*
D03*
Y-97132D02*
D03*
Y-158999D02*
D03*
Y-220866D02*
D03*
X-91864Y212205D02*
D03*
Y150337D02*
D03*
Y88470D02*
D03*
Y26603D02*
D03*
Y-35264D02*
D03*
Y-97132D02*
D03*
Y-158999D02*
D03*
Y-220866D02*
D03*
X-134514Y212205D02*
D03*
Y150337D02*
D03*
Y88470D02*
D03*
Y26603D02*
D03*
Y-35264D02*
D03*
Y-97132D02*
D03*
Y-158999D02*
D03*
Y-220866D02*
D03*
X-177165Y212205D02*
D03*
Y150337D02*
D03*
Y88470D02*
D03*
Y26603D02*
D03*
Y-35264D02*
D03*
Y-97132D02*
D03*
Y-158999D02*
D03*
Y-220866D02*
D03*
D17*
X4921Y199016D02*
D03*
X-4921D02*
D03*
D18*
X-13976Y227756D02*
D03*
X13976D02*
D03*
D19*
X0Y59449D02*
D03*
Y-59449D02*
D03*
X-21457Y7480D02*
D03*
X21457D02*
D03*
M02*
