%FSLAX25Y25*%
%MOIN*%
G70*
G01*
G75*
G04 Layer_Physical_Order=1*
G04 Layer_Color=255*
%ADD10R,0.09449X0.06496*%
%ADD11R,0.09449X0.14370*%
%ADD12R,0.05118X0.21654*%
%ADD13R,0.15748X0.15354*%
%ADD14C,0.15748*%
G36*
X68601Y95665D02*
Y36118D01*
X68247Y35765D01*
X55512Y35765D01*
Y36052D01*
X49212D01*
Y39004D01*
X46260D01*
Y43827D01*
X44100D01*
Y79710D01*
X46260D01*
Y88471D01*
X49212D01*
Y91423D01*
X55512D01*
Y95311D01*
X55865Y95665D01*
X68601Y95665D01*
D02*
G37*
G36*
X111249Y-149436D02*
Y-149836D01*
X98163D01*
Y-149550D01*
X85564D01*
Y-149836D01*
X72549D01*
Y-89936D01*
X85564D01*
Y-94179D01*
X98163D01*
Y-89936D01*
X111249D01*
Y-149436D01*
D02*
G37*
G36*
X195044Y-26102D02*
X183465D01*
Y-25815D01*
X170866D01*
Y-26102D01*
X157800D01*
Y-25702D01*
Y33798D01*
X170866D01*
Y29556D01*
X183465D01*
Y33798D01*
X195044D01*
Y-26102D01*
D02*
G37*
G36*
X-55512Y95311D02*
Y91423D01*
X-49212D01*
Y88471D01*
X-46260D01*
Y79710D01*
X-44100D01*
Y43827D01*
X-46260D01*
Y39004D01*
X-49212D01*
Y36052D01*
X-55512D01*
Y35765D01*
X-68247Y35765D01*
X-68601Y36118D01*
Y95665D01*
X-55865Y95665D01*
X-55512Y95311D01*
D02*
G37*
G36*
Y-28423D02*
Y-32312D01*
X-49212D01*
Y-35263D01*
X-46260D01*
Y-44024D01*
X-44100D01*
Y-79907D01*
X-46260D01*
Y-84731D01*
X-49212D01*
Y-87683D01*
X-55512D01*
Y-87969D01*
X-68247Y-87970D01*
X-68601Y-87616D01*
Y-28070D01*
X-55865Y-28069D01*
X-55512Y-28423D01*
D02*
G37*
G36*
X68601Y-28070D02*
Y-87616D01*
X68247Y-87970D01*
X55512Y-87969D01*
Y-87683D01*
X49212D01*
Y-84731D01*
X46260D01*
Y-79907D01*
X44100D01*
Y-44024D01*
X46260D01*
Y-35263D01*
X49212D01*
Y-32312D01*
X55512D01*
Y-28423D01*
X55865Y-28069D01*
X68601Y-28070D01*
D02*
G37*
G36*
X153900Y-149436D02*
Y-149836D01*
X140814D01*
Y-149550D01*
X128215D01*
Y-149836D01*
X115200D01*
Y-89936D01*
X128215D01*
Y-94179D01*
X140814D01*
Y-89936D01*
X153900D01*
Y-149436D01*
D02*
G37*
G36*
X195044Y-149836D02*
X183465D01*
Y-149550D01*
X170866D01*
Y-149836D01*
X157800D01*
Y-149436D01*
Y-89936D01*
X170866D01*
Y-94179D01*
X183465D01*
Y-89936D01*
X195044D01*
Y-149836D01*
D02*
G37*
G36*
X-72478Y-149436D02*
Y-149836D01*
X-85564D01*
Y-149550D01*
X-98163D01*
Y-149836D01*
X-111178D01*
Y-89936D01*
X-98163D01*
Y-94179D01*
X-85564D01*
Y-89936D01*
X-72478D01*
Y-149436D01*
D02*
G37*
G36*
X-157800Y-25702D02*
Y-26102D01*
X-170866D01*
Y-25815D01*
X-183465D01*
Y-26102D01*
X-195044D01*
Y33798D01*
X-183465D01*
Y29556D01*
X-170866D01*
Y33798D01*
X-157800D01*
Y-25702D01*
D02*
G37*
G36*
Y-149436D02*
Y-149836D01*
X-170866D01*
Y-149550D01*
X-183465D01*
Y-149836D01*
X-195044D01*
Y-89936D01*
X-183465D01*
Y-94179D01*
X-170866D01*
Y-89936D01*
X-157800D01*
Y-149436D01*
D02*
G37*
G36*
X-115129Y-149436D02*
Y-149836D01*
X-128215D01*
Y-149550D01*
X-140814D01*
Y-149836D01*
X-153829D01*
Y-89936D01*
X-140814D01*
Y-94179D01*
X-128215D01*
Y-89936D01*
X-115129D01*
Y-149436D01*
D02*
G37*
G36*
X111249Y-25702D02*
Y-26102D01*
X98163D01*
Y-25815D01*
X85564D01*
Y-26102D01*
X72549D01*
Y33798D01*
X85564D01*
Y29556D01*
X98163D01*
Y33798D01*
X111249D01*
Y-25702D01*
D02*
G37*
G36*
X153900D02*
Y-26102D01*
X140814D01*
Y-25815D01*
X128215D01*
Y-26102D01*
X115200D01*
Y33798D01*
X128215D01*
Y29556D01*
X140814D01*
Y33798D01*
X153900D01*
Y-25702D01*
D02*
G37*
G36*
X-115129D02*
Y-26102D01*
X-128215D01*
Y-25815D01*
X-140814D01*
Y-26102D01*
X-153829D01*
Y33798D01*
X-140814D01*
Y29556D01*
X-128215D01*
Y33798D01*
X-115129D01*
Y-25702D01*
D02*
G37*
G36*
X-72478D02*
Y-26102D01*
X-85564D01*
Y-25815D01*
X-98163D01*
Y-26102D01*
X-111178D01*
Y33798D01*
X-98163D01*
Y29556D01*
X-85564D01*
Y33798D01*
X-72478D01*
Y-25702D01*
D02*
G37*
G36*
Y-211304D02*
Y-211704D01*
X-85564D01*
Y-211417D01*
X-98163D01*
Y-211704D01*
X-111178D01*
Y-151804D01*
X-98163D01*
Y-156046D01*
X-85564D01*
Y-151804D01*
X-72478D01*
Y-211304D01*
D02*
G37*
G36*
X111249D02*
Y-211704D01*
X98163D01*
Y-211417D01*
X85564D01*
Y-211704D01*
X72549D01*
Y-151804D01*
X85564D01*
Y-156046D01*
X98163D01*
Y-151804D01*
X111249D01*
Y-211304D01*
D02*
G37*
G36*
X-157800Y-211304D02*
Y-211704D01*
X-170866D01*
Y-211417D01*
X-183465D01*
Y-211704D01*
X-195044D01*
Y-151804D01*
X-183465D01*
Y-156046D01*
X-170866D01*
Y-151804D01*
X-157800D01*
Y-211304D01*
D02*
G37*
G36*
X-115129Y-211304D02*
Y-211704D01*
X-128215D01*
Y-211417D01*
X-140814D01*
Y-211704D01*
X-153829D01*
Y-151804D01*
X-140814D01*
Y-156046D01*
X-128215D01*
Y-151804D01*
X-115129D01*
Y-211304D01*
D02*
G37*
G36*
X-55512Y-90290D02*
Y-94179D01*
X-49212D01*
Y-97131D01*
X-46260D01*
Y-105892D01*
X-44100D01*
Y-141774D01*
X-46260D01*
Y-146598D01*
X-49212D01*
Y-149550D01*
X-55512D01*
Y-149837D01*
X-68247Y-149837D01*
X-68601Y-149484D01*
Y-89937D01*
X-55865Y-89937D01*
X-55512Y-90290D01*
D02*
G37*
G36*
X68601Y-89937D02*
Y-149484D01*
X68247Y-149837D01*
X55512Y-149837D01*
Y-149550D01*
X49212D01*
Y-146598D01*
X46260D01*
Y-141774D01*
X44100D01*
Y-105892D01*
X46260D01*
Y-97131D01*
X49212D01*
Y-94179D01*
X55512D01*
Y-90290D01*
X55865Y-89937D01*
X68601Y-89937D01*
D02*
G37*
G36*
X153900Y-211304D02*
Y-211704D01*
X140814D01*
Y-211417D01*
X128215D01*
Y-211704D01*
X115200D01*
Y-151804D01*
X128215D01*
Y-156046D01*
X140814D01*
Y-151804D01*
X153900D01*
Y-211304D01*
D02*
G37*
G36*
X195044Y-211704D02*
X183465D01*
Y-211417D01*
X170866D01*
Y-211704D01*
X157800D01*
Y-211304D01*
Y-151804D01*
X170866D01*
Y-156046D01*
X183465D01*
Y-151804D01*
X195044D01*
Y-211704D01*
D02*
G37*
G36*
Y97633D02*
X183465D01*
Y97919D01*
X170866D01*
Y97633D01*
X157800D01*
Y98033D01*
Y157533D01*
X170866D01*
Y153290D01*
X183465D01*
Y157533D01*
X195044D01*
Y97633D01*
D02*
G37*
G36*
X153900Y98033D02*
Y97633D01*
X140814D01*
Y97919D01*
X128215D01*
Y97633D01*
X115200D01*
Y157533D01*
X128215D01*
Y153290D01*
X140814D01*
Y157533D01*
X153900D01*
Y98033D01*
D02*
G37*
G36*
X68601Y219399D02*
Y159853D01*
X68247Y159499D01*
X55512Y159500D01*
Y159786D01*
X49212D01*
Y162738D01*
X46260D01*
Y167562D01*
X44100D01*
Y203445D01*
X46260D01*
Y212206D01*
X49212D01*
Y215157D01*
X55512D01*
Y219046D01*
X55865Y219399D01*
X68601Y219399D01*
D02*
G37*
G36*
X-55512Y219046D02*
Y215157D01*
X-49212D01*
Y212206D01*
X-46260D01*
Y203445D01*
X-44100D01*
Y167562D01*
X-46260D01*
Y162738D01*
X-49212D01*
Y159786D01*
X-55512D01*
Y159500D01*
X-68247Y159499D01*
X-68601Y159853D01*
Y219399D01*
X-55865Y219399D01*
X-55512Y219046D01*
D02*
G37*
G36*
X-115129Y98033D02*
Y97633D01*
X-128215D01*
Y97919D01*
X-140814D01*
Y97633D01*
X-153829D01*
Y157533D01*
X-140814D01*
Y153290D01*
X-128215D01*
Y157533D01*
X-115129D01*
Y98033D01*
D02*
G37*
G36*
X-157800Y98033D02*
Y97633D01*
X-170866D01*
Y97919D01*
X-183465D01*
Y97633D01*
X-195044D01*
Y157533D01*
X-183465D01*
Y153290D01*
X-170866D01*
Y157533D01*
X-157800D01*
Y98033D01*
D02*
G37*
G36*
X111249Y98033D02*
Y97633D01*
X98163D01*
Y97919D01*
X85564D01*
Y97633D01*
X72549D01*
Y157533D01*
X85564D01*
Y153290D01*
X98163D01*
Y157533D01*
X111249D01*
Y98033D01*
D02*
G37*
G36*
X-72478D02*
Y97633D01*
X-85564D01*
Y97919D01*
X-98163D01*
Y97633D01*
X-111178D01*
Y157533D01*
X-98163D01*
Y153290D01*
X-85564D01*
Y157533D01*
X-72478D01*
Y98033D01*
D02*
G37*
G36*
X195044Y159500D02*
X183465D01*
Y159786D01*
X170866D01*
Y159500D01*
X157800D01*
Y159900D01*
Y219400D01*
X170866D01*
Y215158D01*
X183465D01*
Y219400D01*
X195044D01*
Y159500D01*
D02*
G37*
G36*
X188580Y234283D02*
X190092Y233824D01*
X191486Y233080D01*
X192707Y232077D01*
X193709Y230856D01*
X194454Y229462D01*
X194913Y227951D01*
X195060Y226457D01*
X195044Y226378D01*
Y221300D01*
X183465D01*
Y221654D01*
X170866D01*
Y221300D01*
X140814D01*
Y221654D01*
X128215D01*
Y221300D01*
X98163D01*
Y221654D01*
X85564D01*
Y221300D01*
X55512D01*
Y221654D01*
X42913D01*
Y221300D01*
X42000D01*
Y183500D01*
X1500D01*
Y186614D01*
X1969D01*
Y199015D01*
Y211417D01*
X787D01*
Y210400D01*
X-787D01*
Y211417D01*
X-9055D01*
Y210400D01*
X-42000D01*
Y221400D01*
X-42913D01*
Y221654D01*
X-55512D01*
Y221400D01*
X-85564D01*
Y221654D01*
X-98163D01*
Y221400D01*
X-128215D01*
Y221654D01*
X-140814D01*
Y221400D01*
X-170866D01*
Y221654D01*
X-183465D01*
Y221400D01*
X-195044D01*
Y226378D01*
X-195060Y226457D01*
X-194913Y227951D01*
X-194454Y229462D01*
X-193709Y230856D01*
X-192707Y232077D01*
X-191486Y233080D01*
X-190092Y233824D01*
X-188580Y234283D01*
X-187087Y234430D01*
X-187008Y234414D01*
X-23425D01*
Y218504D01*
X-4528D01*
Y234414D01*
X4528D01*
Y218504D01*
X23425D01*
Y234414D01*
X187008D01*
X187087Y234430D01*
X188580Y234283D01*
D02*
G37*
G36*
X-72478Y-87569D02*
Y-87969D01*
X-85564D01*
Y-87683D01*
X-98163D01*
Y-87969D01*
X-111178D01*
Y-28069D01*
X-98163D01*
Y-32312D01*
X-85564D01*
Y-28069D01*
X-72478D01*
Y-87569D01*
D02*
G37*
G36*
X111249Y159900D02*
Y159500D01*
X98163D01*
Y159786D01*
X85564D01*
Y159500D01*
X72549D01*
Y219400D01*
X85564D01*
Y215157D01*
X98163D01*
Y219400D01*
X111249D01*
Y159900D01*
D02*
G37*
G36*
X153900D02*
Y159500D01*
X140814D01*
Y159786D01*
X128215D01*
Y159500D01*
X115200D01*
Y219400D01*
X128215D01*
Y215157D01*
X140814D01*
Y219400D01*
X153900D01*
Y159900D01*
D02*
G37*
G36*
X-157800D02*
Y159500D01*
X-170866D01*
Y159786D01*
X-183465D01*
Y159500D01*
X-195044D01*
Y219400D01*
X-183465D01*
Y215158D01*
X-170866D01*
Y219400D01*
X-157800D01*
Y159900D01*
D02*
G37*
G36*
X-115129Y-87569D02*
Y-87969D01*
X-128215D01*
Y-87683D01*
X-140814D01*
Y-87969D01*
X-153829D01*
Y-28069D01*
X-140814D01*
Y-32312D01*
X-128215D01*
Y-28069D01*
X-115129D01*
Y-87569D01*
D02*
G37*
G36*
X-55512Y157179D02*
Y153290D01*
X-49212D01*
Y150338D01*
X-46260D01*
Y141578D01*
X-44100D01*
Y105695D01*
X-46260D01*
Y100871D01*
X-49212D01*
Y97919D01*
X-55512D01*
Y97632D01*
X-68247Y97632D01*
X-68601Y97985D01*
Y157532D01*
X-55865Y157532D01*
X-55512Y157179D01*
D02*
G37*
G36*
X195044Y35765D02*
X183465D01*
Y36052D01*
X170866D01*
Y35765D01*
X157800D01*
Y36165D01*
Y95665D01*
X170866D01*
Y91423D01*
X183465D01*
Y95665D01*
X195044D01*
Y35765D01*
D02*
G37*
G36*
X153900Y36165D02*
Y35765D01*
X140814D01*
Y36052D01*
X128215D01*
Y35765D01*
X115200D01*
Y95666D01*
X128215D01*
Y91423D01*
X140814D01*
Y95666D01*
X153900D01*
Y36165D01*
D02*
G37*
G36*
X-157800Y-87569D02*
Y-87969D01*
X-170866D01*
Y-87683D01*
X-183465D01*
Y-87969D01*
X-195044D01*
Y-28069D01*
X-183465D01*
Y-32312D01*
X-170866D01*
Y-28069D01*
X-157800D01*
Y-87569D01*
D02*
G37*
G36*
X111249Y36165D02*
Y35765D01*
X98163D01*
Y36052D01*
X85564D01*
Y35765D01*
X72549D01*
Y95666D01*
X85564D01*
Y91423D01*
X98163D01*
Y95666D01*
X111249D01*
Y36165D01*
D02*
G37*
G36*
X68601Y157532D02*
Y97985D01*
X68247Y97632D01*
X55512Y97632D01*
Y97919D01*
X49212D01*
Y100871D01*
X46260D01*
Y105695D01*
X44100D01*
Y141578D01*
X46260D01*
Y150338D01*
X49212D01*
Y153290D01*
X55512D01*
Y157179D01*
X55865Y157532D01*
X68601Y157532D01*
D02*
G37*
G36*
Y33797D02*
Y-25749D01*
X68247Y-26103D01*
X55512Y-26102D01*
Y-25815D01*
X49212D01*
Y-22864D01*
X46260D01*
Y-18040D01*
X44100D01*
Y17843D01*
X46260D01*
Y26604D01*
X49212D01*
Y29556D01*
X55512D01*
Y33444D01*
X55865Y33798D01*
X68601Y33797D01*
D02*
G37*
G36*
X-55512Y33444D02*
Y29556D01*
X-49212D01*
Y26604D01*
X-46260D01*
Y17843D01*
X-44100D01*
Y-18040D01*
X-46260D01*
Y-22864D01*
X-49212D01*
Y-25815D01*
X-55512D01*
Y-26102D01*
X-68247Y-26103D01*
X-68601Y-25749D01*
Y33797D01*
X-55865Y33798D01*
X-55512Y33444D01*
D02*
G37*
G36*
X195044Y-87969D02*
X183465D01*
Y-87683D01*
X170866D01*
Y-87969D01*
X157800D01*
Y-87569D01*
Y-28069D01*
X170866D01*
Y-32312D01*
X183465D01*
Y-28069D01*
X195044D01*
Y-87969D01*
D02*
G37*
G36*
X-157800Y36165D02*
Y35765D01*
X-170866D01*
Y36052D01*
X-183465D01*
Y35765D01*
X-195044D01*
Y95665D01*
X-183465D01*
Y91423D01*
X-170866D01*
Y95665D01*
X-157800D01*
Y36165D01*
D02*
G37*
G36*
X-115129Y36165D02*
Y35765D01*
X-128215D01*
Y36052D01*
X-140814D01*
Y35765D01*
X-153829D01*
Y95666D01*
X-140814D01*
Y91423D01*
X-128215D01*
Y95666D01*
X-115129D01*
Y36165D01*
D02*
G37*
G36*
X-72478D02*
Y35765D01*
X-85564D01*
Y36052D01*
X-98163D01*
Y35765D01*
X-111178D01*
Y95666D01*
X-98163D01*
Y91423D01*
X-85564D01*
Y95666D01*
X-72478D01*
Y36165D01*
D02*
G37*
G36*
X153900Y-87569D02*
Y-87969D01*
X140814D01*
Y-87683D01*
X128215D01*
Y-87969D01*
X115200D01*
Y-28069D01*
X128215D01*
Y-32312D01*
X140814D01*
Y-28069D01*
X153900D01*
Y-87569D01*
D02*
G37*
G36*
X-9055Y201969D02*
X-4920D01*
Y199017D01*
X-1969D01*
Y186614D01*
X-1500D01*
Y182500D01*
X274D01*
X365Y182365D01*
X886Y182017D01*
X1500Y181894D01*
X42000D01*
Y-213700D01*
X42913D01*
Y-217913D01*
X55512D01*
Y-213700D01*
X85564D01*
Y-217913D01*
X98163D01*
Y-213700D01*
X128215D01*
Y-217913D01*
X140814D01*
Y-213700D01*
X170866D01*
Y-217913D01*
X183465D01*
Y-213700D01*
X195044D01*
Y-226378D01*
X195060Y-226457D01*
X194913Y-227950D01*
X194454Y-229462D01*
X193709Y-230856D01*
X192707Y-232077D01*
X191486Y-233080D01*
X190092Y-233824D01*
X188580Y-234283D01*
X187087Y-234430D01*
X187008Y-234414D01*
X-187008D01*
X-187087Y-234430D01*
X-188580Y-234283D01*
X-190092Y-233824D01*
X-191486Y-233080D01*
X-192707Y-232077D01*
X-193709Y-230856D01*
X-194454Y-229462D01*
X-194913Y-227950D01*
X-195060Y-226457D01*
X-195044Y-226378D01*
Y-213700D01*
X-183465D01*
Y-217913D01*
X-170866D01*
Y-213700D01*
X-140814D01*
Y-217913D01*
X-128215D01*
Y-213700D01*
X-98163D01*
Y-217913D01*
X-85564D01*
Y-213700D01*
X-55512D01*
Y-217913D01*
X-42913D01*
Y-213700D01*
X-42300D01*
Y208548D01*
X-42000Y208794D01*
X-9055D01*
Y201969D01*
D02*
G37*
G36*
X-115129Y159500D02*
X-128215D01*
Y159786D01*
X-140814D01*
Y159500D01*
X-153829D01*
Y219400D01*
X-140814D01*
Y215157D01*
X-128215D01*
Y219400D01*
X-115129D01*
Y159500D01*
D02*
G37*
G36*
X-72478Y159900D02*
Y159500D01*
X-85564D01*
Y159786D01*
X-98163D01*
Y159500D01*
X-111178D01*
Y219400D01*
X-98163D01*
Y215157D01*
X-85564D01*
Y219400D01*
X-72478D01*
Y159900D01*
D02*
G37*
G36*
X111249Y-87569D02*
Y-87969D01*
X98163D01*
Y-87683D01*
X85564D01*
Y-87969D01*
X72549D01*
Y-28069D01*
X85564D01*
Y-32312D01*
X98163D01*
Y-28069D01*
X111249D01*
Y-87569D01*
D02*
G37*
G36*
X68601Y-151805D02*
Y-211351D01*
X68247Y-211705D01*
X55512Y-211704D01*
Y-211417D01*
X49212D01*
Y-208466D01*
X46260D01*
Y-203642D01*
X44100D01*
Y-167759D01*
X46260D01*
Y-158998D01*
X49212D01*
Y-156046D01*
X55512D01*
Y-152158D01*
X55865Y-151804D01*
X68601Y-151805D01*
D02*
G37*
G36*
X-55512Y-152158D02*
Y-156046D01*
X-49212D01*
Y-158998D01*
X-46260D01*
Y-167759D01*
X-44100D01*
Y-203642D01*
X-46260D01*
Y-208466D01*
X-49212D01*
Y-211417D01*
X-55512D01*
Y-211704D01*
X-68247Y-211705D01*
X-68601Y-211351D01*
Y-151805D01*
X-55865Y-151804D01*
X-55512Y-152158D01*
D02*
G37*
%LPC*%
G36*
X131562Y-100084D02*
X128215D01*
Y-105892D01*
X131562D01*
Y-100084D01*
D02*
G37*
G36*
X98163D02*
X94816D01*
Y-105892D01*
X98163D01*
Y-100084D01*
D02*
G37*
G36*
X88911D02*
X85564D01*
Y-105892D01*
X88911D01*
Y-100084D01*
D02*
G37*
G36*
X174213D02*
X170866D01*
Y-105892D01*
X174213D01*
Y-100084D01*
D02*
G37*
G36*
X183465D02*
X180118D01*
Y-105892D01*
X183465D01*
Y-100084D01*
D02*
G37*
G36*
X140814D02*
X137467D01*
Y-105892D01*
X140814D01*
Y-100084D01*
D02*
G37*
G36*
X-170866Y-79907D02*
X-174213D01*
Y-81777D01*
X-170866D01*
Y-79907D01*
D02*
G37*
G36*
X-137467D02*
X-140814D01*
Y-81777D01*
X-137467D01*
Y-79907D01*
D02*
G37*
G36*
X-128215D02*
X-131562D01*
Y-81777D01*
X-128215D01*
Y-79907D01*
D02*
G37*
G36*
X55512Y-100084D02*
X52165D01*
Y-105892D01*
X55512D01*
Y-100084D01*
D02*
G37*
G36*
X-52165D02*
X-55512D01*
Y-105892D01*
X-52165D01*
Y-100084D01*
D02*
G37*
G36*
X-180118Y-79907D02*
X-183465D01*
Y-81777D01*
X-180118D01*
Y-79907D01*
D02*
G37*
G36*
X55512Y-38217D02*
X52165D01*
Y-44024D01*
X55512D01*
Y-38217D01*
D02*
G37*
G36*
X88911D02*
X85564D01*
Y-44024D01*
X88911D01*
Y-38217D01*
D02*
G37*
G36*
X98163D02*
X94816D01*
Y-44024D01*
X98163D01*
Y-38217D01*
D02*
G37*
G36*
X-52165D02*
X-55512D01*
Y-44024D01*
X-52165D01*
Y-38217D01*
D02*
G37*
G36*
X-128215D02*
X-131562D01*
Y-44024D01*
X-128215D01*
Y-38217D01*
D02*
G37*
G36*
X-94816D02*
X-98163D01*
Y-44024D01*
X-94816D01*
Y-38217D01*
D02*
G37*
G36*
X-85564D02*
X-88911D01*
Y-44024D01*
X-85564D01*
Y-38217D01*
D02*
G37*
G36*
X-180118Y-18040D02*
X-183465D01*
Y-19910D01*
X-180118D01*
Y-18040D01*
D02*
G37*
G36*
X-170866D02*
X-174213D01*
Y-19910D01*
X-170866D01*
Y-18040D01*
D02*
G37*
G36*
X-137467D02*
X-140814D01*
Y-19910D01*
X-137467D01*
Y-18040D01*
D02*
G37*
G36*
X183465Y-38217D02*
X180118D01*
Y-44024D01*
X183465D01*
Y-38217D01*
D02*
G37*
G36*
X131562D02*
X128215D01*
Y-44024D01*
X131562D01*
Y-38217D01*
D02*
G37*
G36*
X140814D02*
X137467D01*
Y-44024D01*
X140814D01*
Y-38217D01*
D02*
G37*
G36*
X174213D02*
X170866D01*
Y-44024D01*
X174213D01*
Y-38217D01*
D02*
G37*
G36*
X88911Y-79907D02*
X85564D01*
Y-81777D01*
X88911D01*
Y-79907D01*
D02*
G37*
G36*
X98163D02*
X94816D01*
Y-81777D01*
X98163D01*
Y-79907D01*
D02*
G37*
G36*
X131562D02*
X128215D01*
Y-81777D01*
X131562D01*
Y-79907D01*
D02*
G37*
G36*
X55512D02*
X52165D01*
Y-81777D01*
X55512D01*
Y-79907D01*
D02*
G37*
G36*
X-94816D02*
X-98163D01*
Y-81777D01*
X-94816D01*
Y-79907D01*
D02*
G37*
G36*
X-85564D02*
X-88911D01*
Y-81777D01*
X-85564D01*
Y-79907D01*
D02*
G37*
G36*
X-52165D02*
X-55512D01*
Y-81777D01*
X-52165D01*
Y-79907D01*
D02*
G37*
G36*
X-180118Y-38217D02*
X-183465D01*
Y-44024D01*
X-180118D01*
Y-38217D01*
D02*
G37*
G36*
X-170866D02*
X-174213D01*
Y-44024D01*
X-170866D01*
Y-38217D01*
D02*
G37*
G36*
X-137467D02*
X-140814D01*
Y-44024D01*
X-137467D01*
Y-38217D01*
D02*
G37*
G36*
X0Y-39327D02*
X-2626Y-39499D01*
X-5208Y-40013D01*
X-7700Y-40859D01*
X-10061Y-42023D01*
X-12249Y-43485D01*
X-14228Y-45221D01*
X-15964Y-47199D01*
X-17426Y-49388D01*
X-18590Y-51749D01*
X-19436Y-54241D01*
X-19950Y-56822D01*
X-20122Y-59449D01*
X-19950Y-62075D01*
X-19436Y-64657D01*
X-18590Y-67149D01*
X-17426Y-69510D01*
X-15964Y-71698D01*
X-14228Y-73677D01*
X-12249Y-75412D01*
X-10061Y-76875D01*
X-7700Y-78039D01*
X-5208Y-78885D01*
X-2626Y-79399D01*
X0Y-79571D01*
X2626Y-79399D01*
X5208Y-78885D01*
X7700Y-78039D01*
X10061Y-76875D01*
X12249Y-75412D01*
X14228Y-73677D01*
X15964Y-71698D01*
X17426Y-69510D01*
X18590Y-67149D01*
X19436Y-64657D01*
X19950Y-62075D01*
X20122Y-59449D01*
X19950Y-56822D01*
X19436Y-54241D01*
X18590Y-51749D01*
X17426Y-49388D01*
X15964Y-47199D01*
X14228Y-45221D01*
X12249Y-43485D01*
X10061Y-42023D01*
X7700Y-40859D01*
X5208Y-40013D01*
X2626Y-39499D01*
X0Y-39327D01*
D02*
G37*
G36*
X140814Y-79907D02*
X137467D01*
Y-81777D01*
X140814D01*
Y-79907D01*
D02*
G37*
G36*
X174213D02*
X170866D01*
Y-81777D01*
X174213D01*
Y-79907D01*
D02*
G37*
G36*
X183465D02*
X180118D01*
Y-81777D01*
X183465D01*
Y-79907D01*
D02*
G37*
G36*
X-85564Y-203642D02*
X-88911D01*
Y-205512D01*
X-85564D01*
Y-203642D01*
D02*
G37*
G36*
X-94816D02*
X-98163D01*
Y-205512D01*
X-94816D01*
Y-203642D01*
D02*
G37*
G36*
X55512D02*
X52165D01*
Y-205512D01*
X55512D01*
Y-203642D01*
D02*
G37*
G36*
X-52165D02*
X-55512D01*
Y-205512D01*
X-52165D01*
Y-203642D01*
D02*
G37*
G36*
X-170866D02*
X-174213D01*
Y-205512D01*
X-170866D01*
Y-203642D01*
D02*
G37*
G36*
X-180118D02*
X-183465D01*
Y-205512D01*
X-180118D01*
Y-203642D01*
D02*
G37*
G36*
X-128215D02*
X-131562D01*
Y-205512D01*
X-128215D01*
Y-203642D01*
D02*
G37*
G36*
X-137467D02*
X-140814D01*
Y-205512D01*
X-137467D01*
Y-203642D01*
D02*
G37*
G36*
X183465D02*
X180118D01*
Y-205512D01*
X183465D01*
Y-203642D01*
D02*
G37*
G36*
X174213D02*
X170866D01*
Y-205512D01*
X174213D01*
Y-203642D01*
D02*
G37*
G36*
X-170866Y-161952D02*
X-174213D01*
Y-167759D01*
X-170866D01*
Y-161952D01*
D02*
G37*
G36*
X-180118D02*
X-183465D01*
Y-167759D01*
X-180118D01*
Y-161952D01*
D02*
G37*
G36*
X98163Y-203642D02*
X94816D01*
Y-205512D01*
X98163D01*
Y-203642D01*
D02*
G37*
G36*
X88911D02*
X85564D01*
Y-205512D01*
X88911D01*
Y-203642D01*
D02*
G37*
G36*
X140814D02*
X137467D01*
Y-205512D01*
X140814D01*
Y-203642D01*
D02*
G37*
G36*
X131562D02*
X128215D01*
Y-205512D01*
X131562D01*
Y-203642D01*
D02*
G37*
G36*
X-85564Y-223819D02*
X-88911D01*
Y-229626D01*
X-85564D01*
Y-223819D01*
D02*
G37*
G36*
X-94816D02*
X-98163D01*
Y-229626D01*
X-94816D01*
Y-223819D01*
D02*
G37*
G36*
X-42913D02*
X-46260D01*
Y-229626D01*
X-42913D01*
Y-223819D01*
D02*
G37*
G36*
X-52165D02*
X-55512D01*
Y-229626D01*
X-52165D01*
Y-223819D01*
D02*
G37*
G36*
X-170866D02*
X-174213D01*
Y-229626D01*
X-170866D01*
Y-223819D01*
D02*
G37*
G36*
X-180118D02*
X-183465D01*
Y-229626D01*
X-180118D01*
Y-223819D01*
D02*
G37*
G36*
X-128215D02*
X-131562D01*
Y-229626D01*
X-128215D01*
Y-223819D01*
D02*
G37*
G36*
X-137467D02*
X-140814D01*
Y-229626D01*
X-137467D01*
Y-223819D01*
D02*
G37*
G36*
X140814D02*
X137467D01*
Y-229626D01*
X140814D01*
Y-223819D01*
D02*
G37*
G36*
X131562D02*
X128215D01*
Y-229626D01*
X131562D01*
Y-223819D01*
D02*
G37*
G36*
X183465D02*
X180118D01*
Y-229626D01*
X183465D01*
Y-223819D01*
D02*
G37*
G36*
X174213D02*
X170866D01*
Y-229626D01*
X174213D01*
Y-223819D01*
D02*
G37*
G36*
X55512D02*
X52165D01*
Y-229626D01*
X55512D01*
Y-223819D01*
D02*
G37*
G36*
X46260D02*
X42913D01*
Y-229626D01*
X46260D01*
Y-223819D01*
D02*
G37*
G36*
X98163D02*
X94816D01*
Y-229626D01*
X98163D01*
Y-223819D01*
D02*
G37*
G36*
X88911D02*
X85564D01*
Y-229626D01*
X88911D01*
Y-223819D01*
D02*
G37*
G36*
X98163Y-141774D02*
X94816D01*
Y-143645D01*
X98163D01*
Y-141774D01*
D02*
G37*
G36*
X88911D02*
X85564D01*
Y-143645D01*
X88911D01*
Y-141774D01*
D02*
G37*
G36*
X140814D02*
X137467D01*
Y-143645D01*
X140814D01*
Y-141774D01*
D02*
G37*
G36*
X131562D02*
X128215D01*
Y-143645D01*
X131562D01*
Y-141774D01*
D02*
G37*
G36*
X-85564D02*
X-88911D01*
Y-143645D01*
X-85564D01*
Y-141774D01*
D02*
G37*
G36*
X-94816D02*
X-98163D01*
Y-143645D01*
X-94816D01*
Y-141774D01*
D02*
G37*
G36*
X55512D02*
X52165D01*
Y-143645D01*
X55512D01*
Y-141774D01*
D02*
G37*
G36*
X-52165D02*
X-55512D01*
Y-143645D01*
X-52165D01*
Y-141774D01*
D02*
G37*
G36*
X-128215Y-100084D02*
X-131562D01*
Y-105892D01*
X-128215D01*
Y-100084D01*
D02*
G37*
G36*
X-137467D02*
X-140814D01*
Y-105892D01*
X-137467D01*
Y-100084D01*
D02*
G37*
G36*
X-85564D02*
X-88911D01*
Y-105892D01*
X-85564D01*
Y-100084D01*
D02*
G37*
G36*
X-94816D02*
X-98163D01*
Y-105892D01*
X-94816D01*
Y-100084D01*
D02*
G37*
G36*
X183465Y-141774D02*
X180118D01*
Y-143645D01*
X183465D01*
Y-141774D01*
D02*
G37*
G36*
X174213D02*
X170866D01*
Y-143645D01*
X174213D01*
Y-141774D01*
D02*
G37*
G36*
X-170866Y-100084D02*
X-174213D01*
Y-105892D01*
X-170866D01*
Y-100084D01*
D02*
G37*
G36*
X-180118D02*
X-183465D01*
Y-105892D01*
X-180118D01*
Y-100084D01*
D02*
G37*
G36*
X55512Y-161952D02*
X52165D01*
Y-167759D01*
X55512D01*
Y-161952D01*
D02*
G37*
G36*
X-52165D02*
X-55512D01*
Y-167759D01*
X-52165D01*
Y-161952D01*
D02*
G37*
G36*
X98163D02*
X94816D01*
Y-167759D01*
X98163D01*
Y-161952D01*
D02*
G37*
G36*
X88911D02*
X85564D01*
Y-167759D01*
X88911D01*
Y-161952D01*
D02*
G37*
G36*
X-128215D02*
X-131562D01*
Y-167759D01*
X-128215D01*
Y-161952D01*
D02*
G37*
G36*
X-137467D02*
X-140814D01*
Y-167759D01*
X-137467D01*
Y-161952D01*
D02*
G37*
G36*
X-85564D02*
X-88911D01*
Y-167759D01*
X-85564D01*
Y-161952D01*
D02*
G37*
G36*
X-94816D02*
X-98163D01*
Y-167759D01*
X-94816D01*
Y-161952D01*
D02*
G37*
G36*
X-170866Y-141774D02*
X-174213D01*
Y-143645D01*
X-170866D01*
Y-141774D01*
D02*
G37*
G36*
X-180118D02*
X-183465D01*
Y-143645D01*
X-180118D01*
Y-141774D01*
D02*
G37*
G36*
X-128215D02*
X-131562D01*
Y-143645D01*
X-128215D01*
Y-141774D01*
D02*
G37*
G36*
X-137467D02*
X-140814D01*
Y-143645D01*
X-137467D01*
Y-141774D01*
D02*
G37*
G36*
X140814Y-161952D02*
X137467D01*
Y-167759D01*
X140814D01*
Y-161952D01*
D02*
G37*
G36*
X131562D02*
X128215D01*
Y-167759D01*
X131562D01*
Y-161952D01*
D02*
G37*
G36*
X183465D02*
X180118D01*
Y-167759D01*
X183465D01*
Y-161952D01*
D02*
G37*
G36*
X174213D02*
X170866D01*
Y-167759D01*
X174213D01*
Y-161952D01*
D02*
G37*
G36*
X-128215Y167562D02*
X-131562D01*
Y165692D01*
X-128215D01*
Y167562D01*
D02*
G37*
G36*
X-137467D02*
X-140814D01*
Y165692D01*
X-137467D01*
Y167562D01*
D02*
G37*
G36*
X-85564D02*
X-88911D01*
Y165692D01*
X-85564D01*
Y167562D01*
D02*
G37*
G36*
X-94816D02*
X-98163D01*
Y165692D01*
X-94816D01*
Y167562D01*
D02*
G37*
G36*
X183465Y147385D02*
X180118D01*
Y141578D01*
X183465D01*
Y147385D01*
D02*
G37*
G36*
X174213D02*
X170866D01*
Y141578D01*
X174213D01*
Y147385D01*
D02*
G37*
G36*
X-170866Y167562D02*
X-174213D01*
Y165692D01*
X-170866D01*
Y167562D01*
D02*
G37*
G36*
X-180118D02*
X-183465D01*
Y165692D01*
X-180118D01*
Y167562D01*
D02*
G37*
G36*
X140814D02*
X137467D01*
Y165692D01*
X140814D01*
Y167562D01*
D02*
G37*
G36*
X131562D02*
X128215D01*
Y165692D01*
X131562D01*
Y167562D01*
D02*
G37*
G36*
X183465D02*
X180118D01*
Y165692D01*
X183465D01*
Y167562D01*
D02*
G37*
G36*
X174213D02*
X170866D01*
Y165692D01*
X174213D01*
Y167562D01*
D02*
G37*
G36*
X55512D02*
X52165D01*
Y165692D01*
X55512D01*
Y167562D01*
D02*
G37*
G36*
X-52165D02*
X-55512D01*
Y165692D01*
X-52165D01*
Y167562D01*
D02*
G37*
G36*
X98163D02*
X94816D01*
Y165692D01*
X98163D01*
Y167562D01*
D02*
G37*
G36*
X88911D02*
X85564D01*
Y165692D01*
X88911D01*
Y167562D01*
D02*
G37*
G36*
X-170866Y147385D02*
X-174213D01*
Y141578D01*
X-170866D01*
Y147385D01*
D02*
G37*
G36*
X-180118D02*
X-183465D01*
Y141578D01*
X-180118D01*
Y147385D01*
D02*
G37*
G36*
X-128215D02*
X-131562D01*
Y141578D01*
X-128215D01*
Y147385D01*
D02*
G37*
G36*
X-137467D02*
X-140814D01*
Y141578D01*
X-137467D01*
Y147385D01*
D02*
G37*
G36*
X140814Y105695D02*
X137467D01*
Y103824D01*
X140814D01*
Y105695D01*
D02*
G37*
G36*
X131562D02*
X128215D01*
Y103824D01*
X131562D01*
Y105695D01*
D02*
G37*
G36*
X183465D02*
X180118D01*
Y103824D01*
X183465D01*
Y105695D01*
D02*
G37*
G36*
X174213D02*
X170866D01*
Y103824D01*
X174213D01*
Y105695D01*
D02*
G37*
G36*
X98163Y147385D02*
X94816D01*
Y141578D01*
X98163D01*
Y147385D01*
D02*
G37*
G36*
X88911D02*
X85564D01*
Y141578D01*
X88911D01*
Y147385D01*
D02*
G37*
G36*
X140814D02*
X137467D01*
Y141578D01*
X140814D01*
Y147385D01*
D02*
G37*
G36*
X131562D02*
X128215D01*
Y141578D01*
X131562D01*
Y147385D01*
D02*
G37*
G36*
X-85564D02*
X-88911D01*
Y141578D01*
X-85564D01*
Y147385D01*
D02*
G37*
G36*
X-94816D02*
X-98163D01*
Y141578D01*
X-94816D01*
Y147385D01*
D02*
G37*
G36*
X55512D02*
X52165D01*
Y141578D01*
X55512D01*
Y147385D01*
D02*
G37*
G36*
X-52165D02*
X-55512D01*
Y141578D01*
X-52165D01*
Y147385D01*
D02*
G37*
G36*
X-7874Y196063D02*
X-9055D01*
Y186614D01*
X-7874D01*
Y196063D01*
D02*
G37*
G36*
X-42913Y229429D02*
X-46260D01*
Y227559D01*
X-42913D01*
Y229429D01*
D02*
G37*
G36*
X-52165D02*
X-55512D01*
Y227559D01*
X-52165D01*
Y229429D01*
D02*
G37*
G36*
X55512D02*
X52165D01*
Y227559D01*
X55512D01*
Y229429D01*
D02*
G37*
G36*
X46260D02*
X42913D01*
Y227559D01*
X46260D01*
Y229429D01*
D02*
G37*
G36*
X-128215D02*
X-131562D01*
Y227559D01*
X-128215D01*
Y229429D01*
D02*
G37*
G36*
X-137467D02*
X-140814D01*
Y227559D01*
X-137467D01*
Y229429D01*
D02*
G37*
G36*
X-85564D02*
X-88911D01*
Y227559D01*
X-85564D01*
Y229429D01*
D02*
G37*
G36*
X-94816D02*
X-98163D01*
Y227559D01*
X-94816D01*
Y229429D01*
D02*
G37*
G36*
X-170866Y229429D02*
X-174213D01*
Y227559D01*
X-170866D01*
Y229429D01*
D02*
G37*
G36*
X-180118D02*
X-183465D01*
Y227559D01*
X-180118D01*
Y229429D01*
D02*
G37*
G36*
X183465D02*
X180118D01*
Y227559D01*
X183465D01*
Y229429D01*
D02*
G37*
G36*
X174213D02*
X170866D01*
Y227559D01*
X174213D01*
Y229429D01*
D02*
G37*
G36*
X98163Y229429D02*
X94816D01*
Y227559D01*
X98163D01*
Y229429D01*
D02*
G37*
G36*
X88911D02*
X85564D01*
Y227559D01*
X88911D01*
Y229429D01*
D02*
G37*
G36*
X140814D02*
X137467D01*
Y227559D01*
X140814D01*
Y229429D01*
D02*
G37*
G36*
X131562D02*
X128215D01*
Y227559D01*
X131562D01*
Y229429D01*
D02*
G37*
G36*
X-85564Y209252D02*
X-88911D01*
Y203445D01*
X-85564D01*
Y209252D01*
D02*
G37*
G36*
X-94816D02*
X-98163D01*
Y203445D01*
X-94816D01*
Y209252D01*
D02*
G37*
G36*
X55512D02*
X52165D01*
Y203445D01*
X55512D01*
Y209252D01*
D02*
G37*
G36*
X-52165D02*
X-55512D01*
Y203445D01*
X-52165D01*
Y209252D01*
D02*
G37*
G36*
X9055Y211417D02*
X7874D01*
Y201969D01*
X9055D01*
Y211417D01*
D02*
G37*
G36*
Y196063D02*
X7874D01*
Y186614D01*
X9055D01*
Y196063D01*
D02*
G37*
G36*
X-128215Y209252D02*
X-131562D01*
Y203445D01*
X-128215D01*
Y209252D01*
D02*
G37*
G36*
X-137467D02*
X-140814D01*
Y203445D01*
X-137467D01*
Y209252D01*
D02*
G37*
G36*
X-170866Y209252D02*
X-174213D01*
Y203445D01*
X-170866D01*
Y209252D01*
D02*
G37*
G36*
X-180118D02*
X-183465D01*
Y203445D01*
X-180118D01*
Y209252D01*
D02*
G37*
G36*
X183465D02*
X180118D01*
Y203445D01*
X183465D01*
Y209252D01*
D02*
G37*
G36*
X174213D02*
X170866D01*
Y203445D01*
X174213D01*
Y209252D01*
D02*
G37*
G36*
X98163Y209252D02*
X94816D01*
Y203445D01*
X98163D01*
Y209252D01*
D02*
G37*
G36*
X88911D02*
X85564D01*
Y203445D01*
X88911D01*
Y209252D01*
D02*
G37*
G36*
X140814D02*
X137467D01*
Y203445D01*
X140814D01*
Y209252D01*
D02*
G37*
G36*
X131562D02*
X128215D01*
Y203445D01*
X131562D01*
Y209252D01*
D02*
G37*
G36*
X98163Y105695D02*
X94816D01*
Y103824D01*
X98163D01*
Y105695D01*
D02*
G37*
G36*
X88911Y23650D02*
X85564D01*
Y17843D01*
X88911D01*
Y23650D01*
D02*
G37*
G36*
X55512D02*
X52165D01*
Y17843D01*
X55512D01*
Y23650D01*
D02*
G37*
G36*
X131562D02*
X128215D01*
Y17843D01*
X131562D01*
Y23650D01*
D02*
G37*
G36*
X98163D02*
X94816D01*
Y17843D01*
X98163D01*
Y23650D01*
D02*
G37*
G36*
X-94816D02*
X-98163D01*
Y17843D01*
X-94816D01*
Y23650D01*
D02*
G37*
G36*
X-128215D02*
X-131562D01*
Y17843D01*
X-128215D01*
Y23650D01*
D02*
G37*
G36*
X-52165D02*
X-55512D01*
Y17843D01*
X-52165D01*
Y23650D01*
D02*
G37*
G36*
X-85564D02*
X-88911D01*
Y17843D01*
X-85564D01*
Y23650D01*
D02*
G37*
G36*
X-170866Y43827D02*
X-174213D01*
Y41957D01*
X-170866D01*
Y43827D01*
D02*
G37*
G36*
X-180118D02*
X-183465D01*
Y41957D01*
X-180118D01*
Y43827D01*
D02*
G37*
G36*
X-128215D02*
X-131562D01*
Y41957D01*
X-128215D01*
Y43827D01*
D02*
G37*
G36*
X-137467D02*
X-140814D01*
Y41957D01*
X-137467D01*
Y43827D01*
D02*
G37*
G36*
X174213Y23650D02*
X170866D01*
Y17843D01*
X174213D01*
Y23650D01*
D02*
G37*
G36*
X140814D02*
X137467D01*
Y17843D01*
X140814D01*
Y23650D01*
D02*
G37*
G36*
X0Y79571D02*
X-2626Y79399D01*
X-5208Y78885D01*
X-7700Y78039D01*
X-10061Y76875D01*
X-12249Y75412D01*
X-14228Y73677D01*
X-15964Y71698D01*
X-17426Y69510D01*
X-18590Y67149D01*
X-19436Y64657D01*
X-19950Y62075D01*
X-20122Y59449D01*
X-19950Y56822D01*
X-19436Y54241D01*
X-18590Y51749D01*
X-17426Y49388D01*
X-15964Y47199D01*
X-14228Y45221D01*
X-12249Y43485D01*
X-10061Y42023D01*
X-7700Y40859D01*
X-5208Y40013D01*
X-2626Y39499D01*
X0Y39327D01*
X2626Y39499D01*
X5208Y40013D01*
X7700Y40859D01*
X10061Y42023D01*
X12249Y43485D01*
X14228Y45221D01*
X15964Y47199D01*
X17426Y49388D01*
X18590Y51749D01*
X19436Y54241D01*
X19950Y56822D01*
X20122Y59449D01*
X19950Y62075D01*
X19436Y64657D01*
X18590Y67149D01*
X17426Y69510D01*
X15964Y71698D01*
X14228Y73677D01*
X12249Y75412D01*
X10061Y76875D01*
X7700Y78039D01*
X5208Y78885D01*
X2626Y79399D01*
X0Y79571D01*
D02*
G37*
G36*
X183465Y23650D02*
X180118D01*
Y17843D01*
X183465D01*
Y23650D01*
D02*
G37*
G36*
X88911Y-18040D02*
X85564D01*
Y-19910D01*
X88911D01*
Y-18040D01*
D02*
G37*
G36*
X55512D02*
X52165D01*
Y-19910D01*
X55512D01*
Y-18040D01*
D02*
G37*
G36*
X131562D02*
X128215D01*
Y-19910D01*
X131562D01*
Y-18040D01*
D02*
G37*
G36*
X98163D02*
X94816D01*
Y-19910D01*
X98163D01*
Y-18040D01*
D02*
G37*
G36*
X-94816D02*
X-98163D01*
Y-19910D01*
X-94816D01*
Y-18040D01*
D02*
G37*
G36*
X-128215D02*
X-131562D01*
Y-19910D01*
X-128215D01*
Y-18040D01*
D02*
G37*
G36*
X-52165D02*
X-55512D01*
Y-19910D01*
X-52165D01*
Y-18040D01*
D02*
G37*
G36*
X-85564D02*
X-88911D01*
Y-19910D01*
X-85564D01*
Y-18040D01*
D02*
G37*
G36*
X-180118Y23650D02*
X-183465D01*
Y17843D01*
X-180118D01*
Y23650D01*
D02*
G37*
G36*
X21457Y18735D02*
X19696Y18597D01*
X17979Y18185D01*
X16347Y17509D01*
X14841Y16586D01*
X13498Y15439D01*
X12351Y14096D01*
X11428Y12590D01*
X10752Y10958D01*
X10340Y9241D01*
X10202Y7480D01*
X10340Y5720D01*
X10752Y4002D01*
X11428Y2371D01*
X12351Y865D01*
X13498Y-478D01*
X14841Y-1625D01*
X16347Y-2548D01*
X17979Y-3224D01*
X19696Y-3636D01*
X21457Y-3775D01*
X23217Y-3636D01*
X24935Y-3224D01*
X26566Y-2548D01*
X28072Y-1625D01*
X29415Y-478D01*
X30562Y865D01*
X31485Y2371D01*
X32161Y4002D01*
X32573Y5720D01*
X32712Y7480D01*
X32573Y9241D01*
X32161Y10958D01*
X31485Y12590D01*
X30562Y14096D01*
X29415Y15439D01*
X28072Y16586D01*
X26566Y17509D01*
X24935Y18185D01*
X23217Y18597D01*
X21457Y18735D01*
D02*
G37*
G36*
X-137467Y23650D02*
X-140814D01*
Y17843D01*
X-137467D01*
Y23650D01*
D02*
G37*
G36*
X-170866D02*
X-174213D01*
Y17843D01*
X-170866D01*
Y23650D01*
D02*
G37*
G36*
X174213Y-18040D02*
X170866D01*
Y-19910D01*
X174213D01*
Y-18040D01*
D02*
G37*
G36*
X140814D02*
X137467D01*
Y-19910D01*
X140814D01*
Y-18040D01*
D02*
G37*
G36*
X-21457Y18735D02*
X-23217Y18597D01*
X-24935Y18185D01*
X-26566Y17509D01*
X-28072Y16586D01*
X-29415Y15439D01*
X-30562Y14096D01*
X-31485Y12590D01*
X-32161Y10958D01*
X-32573Y9241D01*
X-32712Y7480D01*
X-32573Y5720D01*
X-32161Y4002D01*
X-31485Y2371D01*
X-30562Y865D01*
X-29415Y-478D01*
X-28072Y-1625D01*
X-26566Y-2548D01*
X-24935Y-3224D01*
X-23217Y-3636D01*
X-21457Y-3775D01*
X-19696Y-3636D01*
X-17979Y-3224D01*
X-16347Y-2548D01*
X-14841Y-1625D01*
X-13498Y-478D01*
X-12351Y865D01*
X-11428Y2371D01*
X-10752Y4002D01*
X-10340Y5720D01*
X-10202Y7480D01*
X-10340Y9241D01*
X-10752Y10958D01*
X-11428Y12590D01*
X-12351Y14096D01*
X-13498Y15439D01*
X-14841Y16586D01*
X-16347Y17509D01*
X-17979Y18185D01*
X-19696Y18597D01*
X-21457Y18735D01*
D02*
G37*
G36*
X183465Y-18040D02*
X180118D01*
Y-19910D01*
X183465D01*
Y-18040D01*
D02*
G37*
G36*
X-94816Y43827D02*
X-98163D01*
Y41957D01*
X-94816D01*
Y43827D01*
D02*
G37*
G36*
X174213Y85517D02*
X170866D01*
Y79710D01*
X174213D01*
Y85517D01*
D02*
G37*
G36*
X140814D02*
X137467D01*
Y79710D01*
X140814D01*
Y85517D01*
D02*
G37*
G36*
X-180118Y105695D02*
X-183465D01*
Y103824D01*
X-180118D01*
Y105695D01*
D02*
G37*
G36*
X183465Y85517D02*
X180118D01*
Y79710D01*
X183465D01*
Y85517D01*
D02*
G37*
G36*
X88911D02*
X85564D01*
Y79710D01*
X88911D01*
Y85517D01*
D02*
G37*
G36*
X55512D02*
X52165D01*
Y79710D01*
X55512D01*
Y85517D01*
D02*
G37*
G36*
X131562D02*
X128215D01*
Y79710D01*
X131562D01*
Y85517D01*
D02*
G37*
G36*
X98163D02*
X94816D01*
Y79710D01*
X98163D01*
Y85517D01*
D02*
G37*
G36*
X-52165Y105695D02*
X-55512D01*
Y103824D01*
X-52165D01*
Y105695D01*
D02*
G37*
G36*
X-85564D02*
X-88911D01*
Y103824D01*
X-85564D01*
Y105695D01*
D02*
G37*
G36*
X88911D02*
X85564D01*
Y103824D01*
X88911D01*
Y105695D01*
D02*
G37*
G36*
X55512D02*
X52165D01*
Y103824D01*
X55512D01*
Y105695D01*
D02*
G37*
G36*
X-137467D02*
X-140814D01*
Y103824D01*
X-137467D01*
Y105695D01*
D02*
G37*
G36*
X-170866D02*
X-174213D01*
Y103824D01*
X-170866D01*
Y105695D01*
D02*
G37*
G36*
X-94816D02*
X-98163D01*
Y103824D01*
X-94816D01*
Y105695D01*
D02*
G37*
G36*
X-128215D02*
X-131562D01*
Y103824D01*
X-128215D01*
Y105695D01*
D02*
G37*
G36*
X131562Y43827D02*
X128215D01*
Y41957D01*
X131562D01*
Y43827D01*
D02*
G37*
G36*
X98163D02*
X94816D01*
Y41957D01*
X98163D01*
Y43827D01*
D02*
G37*
G36*
X174213D02*
X170866D01*
Y41957D01*
X174213D01*
Y43827D01*
D02*
G37*
G36*
X140814D02*
X137467D01*
Y41957D01*
X140814D01*
Y43827D01*
D02*
G37*
G36*
X-52165D02*
X-55512D01*
Y41957D01*
X-52165D01*
Y43827D01*
D02*
G37*
G36*
X-85564D02*
X-88911D01*
Y41957D01*
X-85564D01*
Y43827D01*
D02*
G37*
G36*
X88911D02*
X85564D01*
Y41957D01*
X88911D01*
Y43827D01*
D02*
G37*
G36*
X55512D02*
X52165D01*
Y41957D01*
X55512D01*
Y43827D01*
D02*
G37*
G36*
X-94816Y85517D02*
X-98163D01*
Y79710D01*
X-94816D01*
Y85517D01*
D02*
G37*
G36*
X-128215D02*
X-131562D01*
Y79710D01*
X-128215D01*
Y85517D01*
D02*
G37*
G36*
X-52165D02*
X-55512D01*
Y79710D01*
X-52165D01*
Y85517D01*
D02*
G37*
G36*
X-85564D02*
X-88911D01*
Y79710D01*
X-85564D01*
Y85517D01*
D02*
G37*
G36*
X-180118D02*
X-183465D01*
Y79710D01*
X-180118D01*
Y85517D01*
D02*
G37*
G36*
X183465Y43827D02*
X180118D01*
Y41957D01*
X183465D01*
Y43827D01*
D02*
G37*
G36*
X-137467Y85517D02*
X-140814D01*
Y79710D01*
X-137467D01*
Y85517D01*
D02*
G37*
G36*
X-170866D02*
X-174213D01*
Y79710D01*
X-170866D01*
Y85517D01*
D02*
G37*
%LPD*%
D10*
X177165Y224606D02*
D03*
X177165Y162739D02*
D03*
Y100872D02*
D03*
Y39004D02*
D03*
Y-22863D02*
D03*
Y-84730D02*
D03*
Y-146597D02*
D03*
Y-208465D02*
D03*
X134514Y224606D02*
D03*
Y162739D02*
D03*
Y100872D02*
D03*
Y39004D02*
D03*
Y-22863D02*
D03*
Y-84730D02*
D03*
Y-146597D02*
D03*
Y-208465D02*
D03*
X91864Y224606D02*
D03*
Y162739D02*
D03*
Y100872D02*
D03*
Y39004D02*
D03*
Y-22863D02*
D03*
Y-84730D02*
D03*
Y-146597D02*
D03*
Y-208465D02*
D03*
X49213Y224606D02*
D03*
Y162739D02*
D03*
Y100872D02*
D03*
Y39004D02*
D03*
Y-22863D02*
D03*
Y-84730D02*
D03*
Y-146597D02*
D03*
Y-208465D02*
D03*
X-49213Y224606D02*
D03*
Y162739D02*
D03*
Y100872D02*
D03*
Y39004D02*
D03*
Y-22863D02*
D03*
Y-84730D02*
D03*
Y-146597D02*
D03*
Y-208465D02*
D03*
X-91864Y224606D02*
D03*
Y162739D02*
D03*
Y100872D02*
D03*
Y39004D02*
D03*
Y-22863D02*
D03*
Y-84730D02*
D03*
Y-146597D02*
D03*
Y-208465D02*
D03*
X-134514Y224606D02*
D03*
Y162739D02*
D03*
Y100872D02*
D03*
Y39004D02*
D03*
Y-22863D02*
D03*
Y-84730D02*
D03*
Y-146597D02*
D03*
Y-208465D02*
D03*
X-177165Y224606D02*
D03*
Y162739D02*
D03*
Y100872D02*
D03*
Y39004D02*
D03*
Y-22863D02*
D03*
Y-84730D02*
D03*
Y-146597D02*
D03*
Y-208465D02*
D03*
D11*
X177165Y212205D02*
D03*
X177165Y150337D02*
D03*
Y88470D02*
D03*
Y26603D02*
D03*
Y-35264D02*
D03*
Y-97132D02*
D03*
Y-158999D02*
D03*
Y-220866D02*
D03*
X134514Y212205D02*
D03*
Y150337D02*
D03*
Y88470D02*
D03*
Y26603D02*
D03*
Y-35264D02*
D03*
Y-97132D02*
D03*
Y-158999D02*
D03*
Y-220866D02*
D03*
X91864Y212205D02*
D03*
Y150337D02*
D03*
Y88470D02*
D03*
Y26603D02*
D03*
Y-35264D02*
D03*
Y-97132D02*
D03*
Y-158999D02*
D03*
Y-220866D02*
D03*
X49213Y212205D02*
D03*
Y150337D02*
D03*
Y88470D02*
D03*
Y26603D02*
D03*
Y-35264D02*
D03*
Y-97132D02*
D03*
Y-158999D02*
D03*
Y-220866D02*
D03*
X-49213Y212205D02*
D03*
Y150337D02*
D03*
Y88470D02*
D03*
Y26603D02*
D03*
Y-35264D02*
D03*
Y-97132D02*
D03*
Y-158999D02*
D03*
Y-220866D02*
D03*
X-91864Y212205D02*
D03*
Y150337D02*
D03*
Y88470D02*
D03*
Y26603D02*
D03*
Y-35264D02*
D03*
Y-97132D02*
D03*
Y-158999D02*
D03*
Y-220866D02*
D03*
X-134514Y212205D02*
D03*
Y150337D02*
D03*
Y88470D02*
D03*
Y26603D02*
D03*
Y-35264D02*
D03*
Y-97132D02*
D03*
Y-158999D02*
D03*
Y-220866D02*
D03*
X-177165Y212205D02*
D03*
Y150337D02*
D03*
Y88470D02*
D03*
Y26603D02*
D03*
Y-35264D02*
D03*
Y-97132D02*
D03*
Y-158999D02*
D03*
Y-220866D02*
D03*
D12*
X4921Y199016D02*
D03*
X-4921D02*
D03*
D13*
X-13976Y227756D02*
D03*
X13976D02*
D03*
D14*
X0Y59449D02*
D03*
Y-59449D02*
D03*
X-21457Y7480D02*
D03*
X21457D02*
D03*
M02*
